<?xml version="1.0"?>
<svg width="434" height="384" xmlns="http://www.w3.org/2000/svg" xmlns:svg="http://www.w3.org/2000/svg">
 <mask height="255" id="mask0_19746_252052" maskUnits="userSpaceOnUse" width="256" x="90" y="62">
  <path d="m218.03,316.73c70.21,0 127.13,-56.99 127.13,-127.28c0,-70.29 -56.92,-127.28 -127.13,-127.28c-70.21,0 -127.13,56.99 -127.13,127.28c0,70.29 56.92,127.28 127.13,127.28z" fill="white" id="svg_1"/>
 </mask>
 <mask height="384" id="mask1_19746_252052" maskUnits="userSpaceOnUse" width="385" x="7" y="0">
  <path d="m139.15,10.86c0.95,-0.73 1.87,-1.49 2.76,-2.28c5.5,-4.87 6.21,-5.88 14.42,-7.77c8.88,-2.03 19,-0.33 25.45,6.11c5.76,5.76 7.84,14.22 12.85,20.62c7.47,9.53 20.19,13.05 32.16,14.76c39.59,5.64 82.12,-1.99 118.17,15.32c13.37,6.4 26.15,18.03 26.56,32.86c0.74,27.28 -38.92,43.08 -37.24,70.32c0.86,14.08 12.72,24.55 22.22,35c34.84,38.3 44.8,97.4 24.47,145.03c-5.8,13.58 -14.33,26.69 -27.15,34c-7.21,4.09 -15.4,6.15 -23.59,7.45c-32.22,5 -65.17,-0.97 -93.6,-16.94c-12.04,-6.82 -23.3,-15.46 -36.56,-19.41c-16.5,-4.91 -34.19,-2.02 -51.38,-3.11c-39.43,-2.49 -74.37,-25.69 -105,-50.68c-15.11,-12.32 -30.49,-26.56 -34.93,-45.55c-5.28,-22.56 6.65,-46.09 23.25,-62.26c16.59,-16.17 37.51,-26.95 56.54,-40.15c9.33,-6.47 19.12,-15.32 18.79,-26.68c-0.49,-17.12 -23.72,-28.43 -21.16,-45.37c0.97,-6.47 5.65,-11.67 10.12,-16.44l36.49,-39.05c1.97,-2.1 4.11,-4.04 6.4,-5.8l-0.04,0.02z" fill="#754DFF" id="svg_2"/>
 </mask>
 <g class="layer">
  <title>Layer 1</title>
  <path d="m124.12,151.2c2.78,-7.39 8.31,-16.36 15.99,-14.39c5.44,1.41 7.84,7.79 8.53,13.39c3.33,27.05 -12.93,52.02 -24.62,76.64c-6.58,13.85 -11.85,28.3 -15.74,43.14c-3.42,13.01 -5.75,26.88 -2.08,39.79c6.84,24.13 32.02,37.94 55.91,45.51c25.06,7.94 51.18,11.99 77.47,12.02c12.27,0 24.85,-0.94 36.04,-6c13.42,-6.09 23.6,-17.49 33.34,-28.58c11.81,-13.44 23.9,-27.36 29.57,-44.33c3.84,-11.57 4.54,-23.92 5.65,-36.07c2.84,-31.13 9.84,-64.01 31.97,-86.08c14.7,-14.62 35.21,-23.6 46.03,-41.27c5.31,-8.7 7.79,-18.84 9.34,-28.92c2.49,-16.21 2.56,-33.66 -5.44,-47.97c-10.49,-18.78 -32.24,-27.92 -52.9,-33.87c-75.92,-21.87 -162.39,-16.86 -227.84,27.43c-14.7,9.96 -28.77,22.64 -34.16,39.59c-7.24,22.91 -0.42,49.93 9.64,71.73l3.3,-1.76z" fill="#d0f481" id="svg_3" transform="matrix(1 0 0 1 0 0)"/>
  <path d="m132.02,11.72c0.94,-0.72 1.86,-1.47 2.76,-2.25c5.5,-4.81 6.2,-5.8 14.41,-7.67c8.88,-2 19.01,-0.33 25.46,6.03c5.75,5.69 7.84,14.03 12.85,20.35c7.46,9.41 20.18,12.88 32.16,14.57c39.58,5.57 82.11,-1.96 118.17,15.12c13.36,6.32 26.14,17.8 26.55,32.43c0.74,26.92 -38.92,42.52 -37.24,69.4c0.87,13.9 12.72,24.23 22.22,34.54c34.84,37.8 44.81,96.13 24.47,143.14c-5.8,13.4 -14.32,26.34 -27.15,33.56c-7.2,4.04 -15.4,6.07 -23.59,7.35c-32.21,4.93 -65.17,-0.96 -93.6,-16.72c-12.04,-6.73 -23.3,-15.26 -36.56,-19.16c-16.5,-4.85 -34.19,-1.99 -51.37,-3.07c-39.43,-2.46 -74.37,-25.36 -105,-50.02c-15.11,-12.16 -30.49,-26.21 -34.93,-44.96c-5.28,-22.27 6.65,-45.49 23.24,-61.45c16.59,-15.96 37.52,-26.6 56.54,-39.63c9.33,-6.39 19.12,-15.12 18.79,-26.33c-0.48,-16.9 -23.72,-28.06 -21.16,-44.78c0.97,-6.39 5.65,-11.52 10.12,-16.23l36.5,-38.54c1.97,-2.07 4.11,-3.99 6.39,-5.72l-0.03,0.02z" fill="#689ef9" id="svg_4"/>
  <path d="m319.02,184.65c-2.59,-15.86 0.54,-23.67 5.8,-24.54c5.26,-0.87 10.71,5.55 13.3,21.4c1.75,10.71 -0.64,23.37 -2.4,30.47c3.54,-5.47 7.44,-11.24 11.68,-17.29c0.45,-0.64 0.88,-1.25 1.32,-1.87c-0.67,-0.32 -1.04,-0.52 -1.04,-0.52c0,0 0.86,-0.53 2.36,-1.34c1.19,-1.67 2.37,-3.3 3.54,-4.91c-4.03,-4.85 -14.69,-18.65 -17.76,-32.15c-3.81,-16.8 -0.57,-25.46 5.53,-26.85c6.1,-1.39 12.76,5.02 16.55,21.82c2.59,11.44 0.39,25.33 -1.31,33.1c4.95,-6.6 9.63,-12.48 13.98,-17.71c-1.21,-2.83 -9.33,-22.03 -8,-37.88c1.44,-17.17 7.14,-24.44 13.37,-23.92c6.24,0.52 10.64,8.65 9.21,25.81c-1.14,13.54 -9.44,28.33 -12.9,33.98c4.76,-5.65 9.07,-10.46 12.86,-14.49c0.76,-1.99 8.58,-22.13 21.02,-32.76c13.08,-11.18 22.25,-12.33 26.31,-7.57c4.07,4.77 1.49,13.65 -11.61,24.83c-9.11,7.79 -22.89,12.33 -30.41,14.37c-4.49,4.64 -9.65,10.28 -15.33,16.98c7,-3.61 20.02,-9.43 31.83,-9.86c17.19,-0.63 25.09,4.16 25.32,10.43c0.22,6.26 -7.3,11.61 -24.5,12.24c-14.01,0.51 -30.27,-6.43 -35.81,-9.02c-4.97,6.03 -10.31,12.83 -15.93,20.49c7.34,-3.51 18.41,-7.89 28.58,-8.26c17.2,-0.63 25.1,4.17 25.33,10.43c0.22,6.26 -7.3,11.61 -24.5,12.24c-12.66,0.46 -27.15,-5.17 -33.92,-8.17c-0.55,0.78 -1.09,1.54 -1.65,2.33c-5.2,7.41 -9.85,14.39 -13.99,20.91c6.34,-4.01 16.12,-9.34 25.55,-11.09c15.79,-2.95 23.65,0.03 24.63,5.29c0.97,5.26 -5.32,10.84 -21.1,13.76c-11.85,2.2 -26.21,-0.68 -32.65,-2.27c-4.77,7.72 -8.77,14.7 -12.12,20.88c6.1,-4.05 17.14,-10.55 27.73,-12.51c15.78,-2.92 23.65,0.03 24.63,5.3c0.97,5.27 -5.25,10.82 -21.04,13.73c-12.36,2.29 -27.49,-0.93 -33.45,-2.47c-9.17,17.39 -12.59,27.33 -12.64,27.5l-2.89,-0.97c0.05,-0.18 3.75,-10.92 13.76,-29.69c-3.75,-5.67 -11.07,-17.99 -12.98,-29.68c-2.59,-15.86 0.54,-23.67 5.8,-24.54c5.26,-0.87 10.71,5.55 13.3,21.41c1.25,7.69 0.37,16.38 -0.87,23.3c2.32,-4.09 4.91,-8.45 7.76,-13.09l-0.33,-0.09c0,0 0.25,-0.2 0.72,-0.55c1.13,-1.82 2.28,-3.67 3.48,-5.57c-3.09,-4.49 -11.98,-18.33 -14.12,-31.37z" fill="#2EA096" id="svg_5" transform="matrix(1 0 0 1 0 0)"/>
  <path d="m144.82,301.56c0,0 14.56,-63.07 -9.78,-75.83c-24.34,-12.77 -7.35,33.23 -7.35,33.23c0,0 -17.98,-47.62 -35.09,-44.9c-17.12,2.73 0.07,30.91 0.07,30.91c0,0 -32.9,-53.97 -54.94,-39.41c-22.03,14.57 59.46,63.18 59.46,63.18c0,0 -38.91,-19.62 -51.55,0.94c-12.63,20.57 62.22,20.18 62.22,20.18c0,0 -52.2,3.14 -36.71,21.31c15.49,18.18 73.67,-9.61 73.67,-9.61z" fill="#7CE8DF" id="svg_6" transform="matrix(1 0 0 1 0 0)"/>
  <path d="m101.24,296.12c3.69,-0.14 7.37,-0.38 11.04,-0.73c3.65,-0.33 7.28,-0.89 10.87,-1.64c3.53,-0.79 7.08,-1.82 10,-3.69c0.94,-0.57 1.77,-1.29 2.47,-2.14l-11.91,-11.33l-0.36,0.28c-0.22,0.15 -0.45,0.25 -0.64,0.37c-0.87,0.43 -1.78,0.76 -2.73,0.97c-1.8,0.4 -3.65,0.58 -5.5,0.54c-3.58,-0.1 -7.15,-0.52 -10.66,-1.28c-6.94,-1.44 -13.74,-3.53 -20.3,-6.23c3.41,0.9 6.82,1.81 10.23,2.56c3.41,0.76 6.88,1.47 10.33,2c3.43,0.57 6.89,0.86 10.37,0.86c1.68,0.01 3.36,-0.17 5,-0.54c0.78,-0.18 1.52,-0.46 2.23,-0.82c0.15,-0.07 0.29,-0.14 0.43,-0.23c-7.31,-6.93 -14.6,-13.87 -21.99,-20.71c-3.91,-3.66 -7.85,-7.29 -11.82,-10.88c-3.95,-3.62 -7.98,-7.14 -12.02,-10.65c-4.04,-3.51 -8.14,-6.95 -12.36,-10.21c-4.23,-3.27 -8.56,-6.45 -13.43,-8.71c2.54,0.92 4.97,2.08 7.27,3.48c1.16,0.68 2.29,1.41 3.43,2.12l3.36,2.24c4.41,3.08 8.66,6.4 12.83,9.77c8.35,6.76 16.36,13.93 24.23,21.22c7.35,6.86 14.56,13.85 21.65,20.98c0.43,-1.36 0.46,-2.8 0.09,-4.18c-0.4,-1.65 -0.93,-3.26 -1.61,-4.81c-1.4,-3.19 -3.02,-6.28 -4.82,-9.26c-1.8,-2.99 -3.69,-5.95 -5.66,-8.89c-1.92,-2.95 -3.99,-5.81 -6.04,-8.7c4.82,5.2 9.21,10.78 13.14,16.69c2,2.97 3.77,6.08 5.28,9.33c0.77,1.67 1.37,3.41 1.8,5.2c0.22,0.94 0.33,1.9 0.32,2.86l0,0.76c0,0.26 -0.09,0.52 -0.13,0.77c-0.11,0.54 -0.29,1.06 -0.54,1.54c-0.05,0.11 -0.12,0.21 -0.19,0.31c3.84,3.87 7.63,7.79 11.38,11.75c1.12,-1.67 1.95,-3.52 2.47,-5.47c0.92,-3.51 1.44,-7.12 1.54,-10.76c0.14,-3.68 0.09,-7.36 -0.14,-11.04c-0.19,-3.69 -0.58,-7.37 -1.05,-11.06c1.85,7.24 2.82,14.67 2.9,22.14c0.05,3.8 -0.38,7.59 -1.28,11.27c-0.48,1.9 -1.22,3.72 -2.2,5.41c-0.23,0.38 -0.49,0.76 -0.76,1.12c3.06,3.25 6.08,6.53 9.08,9.84l-9.65,-9.15c-0.81,0.97 -1.77,1.81 -2.84,2.49c-3.36,2.1 -7.08,3.13 -10.76,3.88c-3.69,0.7 -7.41,1.14 -11.16,1.32c-7.43,0.38 -14.89,0.13 -22.28,-0.77c3.69,0.04 7.39,0 11.09,-0.19z" fill="#5AC762" id="svg_7"/>
  <path d="m149.24,145.57c2.79,-20.16 -1.39,-29.96 -8.09,-30.89c-6.71,-0.93 -13.43,7.35 -16.19,27.52c-1.92,13.61 1.54,29.57 3.96,38.51c-4.66,-6.83 -9.77,-14.01 -15.34,-21.55l-1.74,-2.32c0.84,-0.43 1.28,-0.68 1.28,-0.68c0,0 -1.12,-0.65 -3.06,-1.66c-1.56,-2.08 -3.11,-4.11 -4.64,-6.1c4.96,-6.26 18.03,-24.04 21.5,-41.27c4.31,-21.39 -0.05,-32.26 -7.82,-33.83c-7.78,-1.57 -15.99,6.75 -20.32,28.17c-2.92,14.55 0.31,32.13 2.68,41.88c-6.47,-8.2 -12.58,-15.51 -18.25,-22.01c1.48,-3.63 11.14,-28.16 8.95,-48.21c-2.35,-21.69 -9.79,-30.73 -17.67,-29.88c-7.88,0.84 -13.22,11.28 -10.87,32.97c1.85,17.11 12.79,35.58 17.38,42.63c-6.2,-7 -11.82,-12.96 -16.73,-17.95c-1.01,-2.5 -11.56,-27.77 -27.62,-40.84c-16.93,-13.75 -28.56,-14.93 -33.56,-8.77c-5,6.16 -1.46,17.32 15.46,31.08c11.79,9.6 29.37,14.91 38.96,17.28c5.83,5.77 12.54,12.73 19.93,21.04c-8.95,-4.36 -25.64,-11.33 -40.6,-11.52c-21.8,-0.27 -31.65,6.05 -31.75,13.98c-0.09,7.94 9.59,14.49 31.4,14.72c17.76,0.22 38.13,-9.08 45.07,-12.52c6.5,7.48 13.43,15.93 20.81,25.45c-9.41,-4.22 -23.57,-9.42 -36.44,-9.6c-21.8,-0.26 -31.65,6.06 -31.75,13.99c-0.09,7.94 9.59,14.49 31.4,14.73c16.06,0.19 34.23,-7.38 42.7,-11.39c0.72,0.97 1.44,1.92 2.16,2.89c6.82,9.23 12.91,17.93 18.37,26.05c-8.15,-4.88 -20.7,-11.33 -32.7,-13.25c-20.08,-3.2 -29.95,0.76 -31.02,7.46c-1.07,6.69 7.07,13.55 27.14,16.77c15.06,2.42 33.16,-1.67 41.27,-3.84c6.27,9.6 11.56,18.34 15.98,26.05c-7.85,-4.94 -22.01,-12.8 -35.5,-14.97c-20.07,-3.2 -29.95,0.76 -31.01,7.45c-1.07,6.69 7.03,13.57 27.14,16.79c15.72,2.51 34.76,-2.06 42.27,-4.16c12.15,21.77 16.78,34.22 16.86,34.43l3.63,-1.32c-0.08,-0.22 -5.12,-13.71 -18.34,-37.16c4.54,-7.3 13.46,-23.13 15.52,-38c2.8,-20.16 -1.39,-29.96 -8.09,-30.89c-6.71,-0.92 -13.4,7.36 -16.19,27.53c-1.36,9.77 0,20.76 1.82,29.48c-3.07,-5.12 -6.48,-10.57 -10.23,-16.34l0.42,-0.14c0,0 -0.34,-0.24 -0.94,-0.64c-1.48,-2.27 -2.99,-4.58 -4.58,-6.95c3.84,-5.82 14.68,-23.61 16.98,-40.2z" fill="#37B4A9" id="svg_8" transform="matrix(1 0 0 1 0 0)"/>
  <path d="m220.04,333.73c70.21,0 127.13,-56.99 127.13,-127.28c0,-70.29 -56.92,-127.28 -127.13,-127.28c-70.21,0 -127.13,56.99 -127.13,127.28c0,70.29 56.92,127.28 127.13,127.28z" fill="#5CDBD9" id="svg_9" transform="matrix(1 0 0 1 0 0)">D o no r S p he r</path>
  <g id="svg_10" mask="url(#mask0_19746_252052)" transform="matrix(1 0 0 1 0 0)">
   <path d="m-40.3,-112.69c0,0 -1.78,6.52 -7.09,8.88c-5.32,2.36 -11.24,-1.77 -13.6,2.37c-2.37,4.14 -12.42,7.1 -24.84,11.25c-12.41,4.15 -19.51,17.17 -33.7,21.91c-14.2,4.73 -20.7,0.59 -26.02,8.28c-5.32,7.69 -6.51,16 -11.82,16c-5.32,0 -13.6,4.14 -5.92,8.88c7.69,4.74 10.05,-2.37 15.98,-7.68c5.94,-5.31 24.25,7.68 31.33,6.52c7.09,-1.17 16.55,0.58 15.99,5.92c-0.57,5.33 -5.32,9.46 -13.01,8.87c-7.7,-0.58 -4.14,7.11 -16.56,6.51c-12.41,-0.59 -10.64,-10.06 -13.01,-13.02c-2.36,-2.95 -14.19,-3.55 -26.01,-0.59c-11.83,2.96 -23.06,17.17 -22.48,34.93c0.59,17.76 23.66,15.36 27.21,20.12c3.55,4.77 1.77,21.32 11.82,30.79c10.05,9.46 6.51,13.02 10.05,20.72c3.54,7.69 23.66,23.68 33.71,23.08c10.05,-0.59 7.67,-5.32 11.82,-11.83c4.16,-6.51 14.19,-2.37 14.19,-13.03c0,-10.66 -2.95,-17.16 4.14,-23.68c7.1,-6.52 13.02,-29.6 12.42,-32.56c-0.59,-2.96 -26.61,2.37 -28.98,0c-2.36,-2.37 -15.98,-30.2 -14.18,-31.37c1.8,-1.17 13,24.27 18.33,24.27c5.32,0 29.56,-4.73 30.74,-14.79c1.19,-10.07 -4.73,-8.88 -8.86,-8.88c-4.14,0 -9.47,-13.62 -9.47,-13.62c0,0 11.83,7.68 19.52,7.1c7.68,-0.58 21.88,-1.18 26.01,5.33c4.14,6.52 18.33,21.31 18.93,15.37c0.59,-5.95 1.77,-4.74 3.54,-11.25c1.78,-6.51 -4.14,-20.12 2.96,-18.35c7.1,1.77 3.55,11.24 7.1,11.84c3.54,0.59 3.54,-4.74 6.5,-0.6c2.95,4.15 8.87,20.13 9.46,17.77c0.59,-2.37 -1.18,-11.84 1.18,-11.84c2.37,0 14.79,17.16 9.47,-5.93c-5.32,-23.08 -15.99,-18.35 -13.6,-24.27c2.38,-5.92 9.45,4.74 8.27,1.19c-1.18,-3.56 -6.5,-11.84 -6.5,-11.84c0,0 -4.14,-13.02 -10.65,-20.72c-6.51,-7.69 5.92,-13.61 5.92,-13.61l-50.29,-28.44z" fill="#1FCACC" id="svg_11"/>
  </g>
  <path d="m321.58,195.52c-0.63,6.03 8.96,11.94 8.96,11.94c0,0 10.56,-3.84 11.17,-9.9c0.62,-6.05 -3.4,-11.37 -8.95,-11.93c-5.55,-0.57 -10.56,3.86 -11.18,9.89z" fill="#008C95" id="svg_177"/>
  <path d="m333.66,207.81c-3.28,5.12 2.59,14.72 2.59,14.72c0,0 11.17,1.34 14.43,-3.77c3.27,-5.1 2.11,-11.68 -2.55,-14.72c-4.67,-3.04 -11.21,-1.33 -14.47,3.77z" fill="#008C95" id="svg_178"/>
  <path d="m314.15,222.21c5.5,2.56 14.18,-4.62 14.18,-4.62c0,0 -0.22,-11.25 -5.75,-13.78c-5.53,-2.54 -11.85,-0.48 -14.19,4.6c-2.33,5.09 0.26,11.26 5.76,13.8z" fill="#008C95" id="svg_179"/>
  <path d="m315.72,210.6c0.36,-0.75 1.24,-0.39 2,-0.09c0.18,0.08 0.33,0.21 0.41,0.39c0.08,0.18 0.09,0.38 0.03,0.56c2.21,1.53 7.2,4.59 12.02,7.44c0.55,-10.54 0.71,-22.19 0.71,-22.37c0,-0.2 0.08,-0.39 0.23,-0.53c0.14,-0.14 0.33,-0.22 0.53,-0.22c0.2,0 0.39,0.08 0.53,0.22c0.14,0.14 0.22,0.33 0.22,0.53c0,0.77 -0.18,12.81 -0.76,23.43c0.08,0.18 0.08,0.38 0,0.57c-0.19,3.39 -0.43,6.62 -0.71,9.25l9.38,-16.56c0.09,-0.18 0.26,-0.31 0.45,-0.36c0.2,-0.05 0.4,-0.03 0.58,0.07c0.17,0.1 0.3,0.26 0.35,0.46c0.06,0.19 0.03,0.4 -0.07,0.57l-11.4,20.08c-0.08,0.12 -0.19,0.22 -0.32,0.29c-0.13,0.07 -0.27,0.1 -0.42,0.08c-0.06,0 -0.13,-0.02 -0.19,-0.04c-0.17,-0.06 -0.31,-0.18 -0.4,-0.34c-0.08,-0.16 -0.11,-0.34 -0.07,-0.52c0.54,-2.67 0.95,-7.56 1.28,-12.91c-14.96,-8.8 -14.75,-9.25 -14.38,-10z" fill="#007578" id="svg_180"/>
  <path d="m298.77,244.99c1.92,5.76 13.05,7.23 13.05,7.23c0,0 8.06,-7.84 6.16,-13.6c-1.9,-5.75 -7.75,-8.99 -13.05,-7.23c-5.3,1.76 -8.06,7.85 -6.16,13.6z" fill="#008C95" id="svg_181"/>
  <path d="m314.8,251.27c-0.9,5.99 8.38,12.35 8.38,12.35c0,0 10.73,-3.35 11.63,-9.34c0.9,-5.99 -2.84,-11.52 -8.37,-12.36c-5.53,-0.83 -10.74,3.35 -11.64,9.35z" fill="#008C95" id="svg_182"/>
  <path d="m302.88,272.39c6.05,0.07 11.06,-10.01 11.06,-10.01c0,0 -4.8,-10.18 -10.87,-10.25c-6.07,-0.06 -11.01,4.43 -11.07,10.02c-0.05,5.6 4.82,10.18 10.88,10.24z" fill="#008C95" id="svg_183"/>
  <path d="m299.57,261.14c0,-0.84 0.97,-0.88 1.8,-0.92c0.19,0 0.38,0.07 0.53,0.2c0.15,0.12 0.24,0.3 0.26,0.5c2.63,0.48 8.44,1.24 14.01,1.86c-3.84,-9.83 -8.42,-20.54 -8.49,-20.7c-0.04,-0.09 -0.06,-0.19 -0.06,-0.29c0,-0.1 0.02,-0.2 0.05,-0.29c0.04,-0.09 0.1,-0.18 0.16,-0.25c0.07,-0.07 0.16,-0.13 0.25,-0.16c0.18,-0.08 0.39,-0.09 0.57,-0.01c0.19,0.07 0.34,0.21 0.42,0.4c0.3,0.71 5.07,11.77 8.87,21.7c0.13,0.14 0.2,0.32 0.2,0.52c1.21,3.2 2.32,6.22 3.12,8.73l1.8,-18.95c0.02,-0.2 0.12,-0.38 0.27,-0.51c0.16,-0.13 0.36,-0.19 0.56,-0.17c0.19,0.02 0.38,0.12 0.51,0.27c0.12,0.16 0.18,0.36 0.17,0.56l-2.18,22.95c-0.02,0.14 -0.08,0.28 -0.17,0.39c-0.09,0.12 -0.21,0.2 -0.35,0.25c-0.06,0.02 -0.12,0.03 -0.19,0.04c-0.18,0.01 -0.35,-0.05 -0.5,-0.16c-0.14,-0.11 -0.24,-0.26 -0.28,-0.44c-0.6,-2.66 -2.22,-7.28 -4.13,-12.29c-17.24,-1.89 -17.24,-2.39 -17.2,-3.23z" fill="#007578" id="svg_184"/>
  <path d="m353.73,227.21c-4.86,3.61 -2.79,14.67 -2.79,14.67c0,0 9.96,5.22 14.83,1.62c4.87,-3.6 6.11,-10.18 2.79,-14.67c-3.33,-4.5 -9.96,-5.22 -14.83,-1.62z" fill="#008C95" id="svg_185"/>
  <path d="m352.78,244.43c-5.97,1.01 -9.11,11.82 -9.11,11.82c0,0 6.53,9.17 12.49,8.15c5.97,-1.02 10.05,-6.31 9.12,-11.83c-0.94,-5.51 -6.54,-9.15 -12.5,-8.14z" fill="#008C95" id="svg_186"/>
  <path d="m329.01,239.68c1.83,5.76 12.96,7.4 12.96,7.4c0,0 8.16,-7.75 6.33,-13.53c-1.83,-5.78 -7.64,-9.09 -12.96,-7.39c-5.33,1.69 -8.16,7.74 -6.33,13.52z" fill="#008C95" id="svg_187"/>
  <path d="m338.63,233.03c0.81,-0.23 1.14,0.64 1.43,1.42c0.07,0.19 0.06,0.39 -0.01,0.57c-0.08,0.17 -0.22,0.32 -0.4,0.39c0.36,2.67 1.46,8.43 2.6,13.91c8.15,-6.69 16.87,-14.41 17,-14.53c0.08,-0.06 0.16,-0.11 0.26,-0.15c0.09,-0.03 0.19,-0.04 0.29,-0.04c0.1,0.01 0.2,0.03 0.28,0.08c0.1,0.04 0.17,0.1 0.24,0.18c0.13,0.15 0.2,0.34 0.18,0.54c-0.01,0.2 -0.1,0.39 -0.24,0.52c-0.58,0.51 -9.59,8.5 -17.82,15.21c-0.05,0.09 -0.11,0.16 -0.19,0.22c-0.07,0.06 -0.15,0.11 -0.25,0.14c-2.64,2.14 -5.18,4.14 -7.31,5.69l18.54,-4.2c0.19,-0.03 0.38,0.02 0.53,0.13c0.16,0.11 0.27,0.27 0.31,0.45c0.05,0.19 0.02,0.38 -0.08,0.55c-0.09,0.16 -0.24,0.29 -0.42,0.35l-22.46,5.12c-0.14,0.03 -0.29,0.02 -0.43,-0.03c-0.14,-0.05 -0.26,-0.14 -0.35,-0.26c-0.03,-0.05 -0.07,-0.11 -0.09,-0.17c-0.07,-0.16 -0.07,-0.35 -0.02,-0.52c0.06,-0.17 0.18,-0.31 0.33,-0.41c2.35,-1.4 6.22,-4.38 10.39,-7.76c-3.57,-17.02 -3.09,-17.17 -2.31,-17.4z" fill="#007578" id="svg_188"/>
  <path d="m332.94,268.35c-4.87,3.6 -2.8,14.66 -2.8,14.66c0,0 9.97,5.23 14.84,1.62c4.86,-3.62 6.11,-10.18 2.78,-14.68c-3.32,-4.5 -9.95,-5.21 -14.82,-1.6z" fill="#008C95" id="svg_189"/>
  <path d="m331.99,285.56c-5.97,1.01 -9.11,11.82 -9.11,11.82c0,0 6.53,9.16 12.49,8.15c5.97,-1.01 10.06,-6.3 9.12,-11.82c-0.93,-5.52 -6.53,-9.17 -12.5,-8.15z" fill="#008C95" id="svg_190"/>
  <path d="m308.22,280.81c1.83,5.76 12.96,7.39 12.96,7.39c0,0 8.16,-7.74 6.33,-13.52c-1.83,-5.77 -7.63,-9.09 -12.96,-7.4c-5.33,1.69 -8.16,7.75 -6.33,13.53z" fill="#008C95" id="svg_191"/>
  <path d="m286.4,276.27c0.8,-0.23 1.13,0.64 1.42,1.43c0.07,0.18 0.07,0.38 -0.01,0.56c-0.07,0.18 -0.22,0.32 -0.39,0.4c0.36,2.66 1.45,8.42 2.6,13.9c8.15,-6.69 16.86,-14.41 17,-14.53c0.07,-0.07 0.16,-0.11 0.25,-0.15c0.09,-0.03 0.19,-0.04 0.29,-0.04c0.1,0.01 0.2,0.03 0.29,0.08c0.09,0.04 0.16,0.1 0.23,0.18c0.07,0.07 0.12,0.16 0.15,0.25c0.03,0.09 0.04,0.19 0.04,0.29c-0.01,0.1 -0.03,0.2 -0.08,0.29c-0.04,0.09 -0.1,0.17 -0.18,0.23c-0.56,0.51 -9.58,8.51 -17.81,15.21c-0.09,0.17 -0.25,0.3 -0.44,0.36c-2.63,2.15 -5.18,4.14 -7.31,5.7l18.55,-4.21c0.19,-0.03 0.38,0.01 0.55,0.11c0.16,0.11 0.27,0.28 0.32,0.47c0.04,0.19 0.01,0.39 -0.09,0.56c-0.1,0.16 -0.26,0.28 -0.45,0.33l-22.46,5.13c-0.17,0.04 -0.36,0.01 -0.52,-0.07c-0.16,-0.09 -0.28,-0.23 -0.35,-0.39c-0.06,-0.17 -0.07,-0.36 -0.01,-0.53c0.06,-0.17 0.17,-0.31 0.33,-0.4c2.34,-1.4 6.22,-4.38 10.37,-7.76c-3.56,-17.02 -3.08,-17.17 -2.29,-17.4z" fill="#007578" id="svg_192"/>
  <path d="m293.31,288.04c0,0 -11.66,-15.05 -7.83,-30.65l3.83,-15.59c0,0 10.42,11.21 9.21,25.29c-1.2,14.09 -5.21,20.95 -5.21,20.95z" fill="#FFB800" id="svg_193"/>
  <path d="m294.23,293.03c0,0 -6.01,-16.54 6.52,-31.07c12.53,-14.53 17.39,-16.71 17.39,-16.71c0,0 0.13,15.1 -6.76,27.53c-4.44,7.74 -10.25,14.6 -17.15,20.25z" fill="#FFB800" id="svg_194"/>
  <path d="m292.56,294.11c0,0 15.93,7.45 31.49,-3.78c15.56,-11.22 18.14,-15.87 18.14,-15.87c0,0 -15,-1.45 -27.94,4.33c-8.11,3.74 -15.46,8.93 -21.69,15.32z" fill="#FFB800" id="svg_195"/>
  <path d="m297.44,295.47c0,0 13.96,12.95 29.81,10.5l15.85,-2.44c0,0 -10.23,-11.39 -24.36,-11.43c-14.13,-0.04 -21.3,3.37 -21.3,3.37z" fill="#FFB800" id="svg_196"/>
  <path d="m295.17,294.62c0,0 -1.21,-20.32 18.59,-28.72c19.8,-8.41 22.77,-4.11 22.77,-4.11c0,0 -20.36,33.12 -41.36,32.83z" fill="#FFB800" id="svg_197"/>
  <path d="m315.73,264.77c-4.14,3.5 -8.22,7.05 -12.15,10.82c-3.78,3.8 -7.95,7.54 -10.29,12.45c2.15,-5.02 6.32,-8.84 10.09,-12.66c3.93,-3.74 8.05,-7.28 12.33,-10.61l0.02,0z" fill="#E98706" id="svg_198"/>
  <path d="m327.29,274.46c-8.31,7.28 -17.85,13.44 -28.4,16.92c1.28,-0.51 2.6,-0.94 3.83,-1.53c8.9,-3.84 17.06,-9.28 24.55,-15.36l0.02,-0.03z" fill="#E98706" id="svg_199"/>
  <path d="m322.47,292.06c-6.25,1 -18.77,2.6 -24.05,-1.11c5.29,3.33 17.77,1.72 24.05,1.11z" fill="#E98706" id="svg_200"/>
  <path d="m299.23,263.35c-1.4,3.5 -2.58,7.09 -3.54,10.74c-0.94,3.16 -1.36,6.46 -1.23,9.76l0.25,1.4c-1.69,-6.54 1.87,-15.87 4.52,-21.9z" fill="#E98706" id="svg_201"/>
  <path d="m286.99,298.41c0,0 3.13,-8.33 2.74,-14.18c-0.48,-7.17 2.61,-8.51 3.88,-4.06c0.53,1.65 0.9,3.35 1.09,5.08c0,0 6.89,-3.27 8.4,-1.62c1.51,1.65 -4.68,7.34 -4.68,7.34c0,0 9.49,0.41 8.95,3.2c-0.54,2.78 -7.03,1.41 -12.54,1.79c-3.58,0.22 -7.84,2.45 -7.84,2.45z" fill="#007578" id="svg_202"/>
  <mask height="481" id="mask2_19746_252052" maskUnits="userSpaceOnUse" width="480" x="-7" y="-33">
   <path d="m232.79,447.09c132.18,0 239.34,-107.29 239.34,-239.63c0,-132.34 -107.16,-239.63 -239.34,-239.63c-132.19,0 -239.35,107.29 -239.35,239.63c0,132.34 107.16,239.63 239.35,239.63z" fill="white" id="svg_204"/>
  </mask>
  <g id="svg_205" mask="url(#mask2_19746_252052)">
   <path d="m285.88,302.3c-41.39,-0.58 -46.56,3.45 -58.05,3.45c-11.5,0 -27.59,-42.58 -35.07,-43.16c-7.47,-0.57 -7.46,5.18 -7.46,5.18l4.59,16.11c0,0 -21.84,-35.68 -31.61,-36.82c-9.76,-1.15 -8.62,8.05 -8.62,8.05c0,0 -5.75,-7.48 -13.22,-5.76c-7.47,1.72 -6.32,9.78 -6.32,9.78l21.84,29.92c0,0 -22.41,-20.13 -30.46,-12.08c-8.05,8.05 -4.6,8.06 -4.6,8.06l48.85,37.97c0,0 31.62,24.18 55.75,24.18c24.14,0 41.25,0.21 49.3,9.99c8.05,9.78 -2.07,115.53 -2.07,115.53l72.88,0.5c0,0 -5.39,-65.37 -10.92,-113.94c-5.15,-45.45 -25.6,-56.69 -44.81,-56.96z" fill="#FFCDC4" id="svg_206"/>
   <mask height="228" id="mask3_19746_252052" maskUnits="userSpaceOnUse" width="226" x="110" y="228">
    <path d="m279.87,284.3c-41.38,-0.58 -46.56,3.45 -58.05,3.45c-11.5,0 -27.59,-42.58 -35.06,-43.16c-7.48,-0.57 -7.47,5.18 -7.47,5.18l4.6,16.11c0,0 -21.84,-35.68 -31.61,-36.82c-9.77,-1.15 -8.63,8.05 -8.63,8.05c0,0 -5.75,-7.48 -13.22,-5.76c-7.47,1.72 -6.32,9.78 -6.32,9.78l21.84,29.93c0,0 -22.41,-20.14 -30.46,-12.09c-8.05,8.05 -4.6,8.06 -4.6,8.06l48.86,37.98c0,0 31.61,24.17 55.75,24.17c24.13,0 41.25,0.21 49.3,9.99c8.05,9.78 -2.08,115.53 -2.08,115.53l72.88,0.5c0,0 -5.39,-65.37 -10.92,-113.94c-5.15,-45.45 -25.6,-56.69 -44.81,-56.96z" fill="white" id="svg_207"/>
   </mask>
   <mask height="230" id="mask4_19746_252052" maskUnits="userSpaceOnUse" width="226" x="110" y="228">
    <path d="m279.87,284.3c-41.38,-0.58 -46.56,3.45 -58.05,3.45c-11.5,0 -27.59,-42.58 -35.06,-43.16c-7.48,-0.57 -7.47,5.18 -7.47,5.18l4.6,16.11c0,0 -21.84,-35.68 -31.61,-36.82c-9.77,-1.15 -8.63,8.05 -8.63,8.05c0,0 -5.75,-7.48 -13.22,-5.76c-7.47,1.72 -6.32,9.78 -6.32,9.78l21.84,29.93c0,0 -22.41,-20.14 -30.46,-12.09c-8.05,8.05 -4.6,8.06 -4.6,8.06l48.86,37.98c0,0 31.61,24.17 55.75,24.17c24.13,0 47.47,2.97 55.51,12.75c8.04,9.78 -18.73,115.57 -18.73,115.57l83.34,-2.3c0,0 -5.39,-65.37 -10.92,-113.94c-5.17,-45.45 -25.62,-56.69 -44.83,-56.96z" fill="white" id="svg_210"/>
   </mask>
   <g id="svg_211" mask="url(#mask4_19746_252052)">
    <path d="m182.99,297.7c-13.06,-15.47 -25.27,-31.65 -36.58,-48.45c13.06,15.48 25.27,31.65 36.58,48.45z" fill="#D6A299" id="svg_212"/>
    <path d="m181.84,268.35c7.64,10.53 14.37,21.7 20.12,33.37c-7.63,-10.53 -14.36,-21.7 -20.12,-33.37z" fill="#D6A299" id="svg_213"/>
    <path d="m143.91,282.15c11.73,7.16 22.88,15.24 33.33,24.17c-11.74,-7.15 -22.89,-15.23 -33.33,-24.17z" fill="#D6A299" id="svg_214"/>
   </g>
   <path d="m116.93,285.02c1.73,-0.5 3.54,-0.57 5.3,-0.21c1.77,0.35 3.41,1.13 4.81,2.26c2,1.75 3.97,3.84 5.86,5.69l0.47,0.47c-1.09,1.01 -2.22,1.99 -3.32,2.98c-4.07,-3.2 -9.2,-7.78 -13.12,-11.19zm0,0c4.63,3.42 9.07,6.4 13.48,9.88l-0.8,0c0.8,-0.72 1.6,-1.47 2.42,-2.19l0,0.92c-1.86,-1.85 -3.76,-3.95 -5.64,-5.76c-1.27,-1.13 -2.78,-1.97 -4.41,-2.46c-1.62,-0.49 -3.34,-0.62 -5.03,-0.39l-0.02,0z" fill="#D6A299" id="svg_215"/>
   <mask height="63" id="mask5_19746_252052" maskUnits="userSpaceOnUse" width="45" x="174" y="205">
    <path d="m210.86,205.75l8.05,6.67c-1.59,0.18 -3.19,0.27 -4.77,0.57c-15.65,2.96 -28.53,16.18 -31.33,32.17c-1.39,7.22 -0.35,14.71 2.95,21.29c0.12,0.23 0.25,0.46 0.37,0.69l-8.03,-6.64c-0.12,-0.24 -0.25,-0.46 -0.37,-0.7c-3.3,-6.58 -4.34,-14.06 -2.96,-21.29c2.79,-16 15.67,-29.2 31.33,-32.16c1.57,-0.32 3.17,-0.41 4.76,-0.6z" fill="white" id="svg_218"/>
   </mask>
   <mask height="13" id="mask6_19746_252052" maskUnits="userSpaceOnUse" width="14" x="178" y="255">
    <path d="m183.45,255.45l8.06,6.66c-1.75,1.67 -3.51,3.33 -5.27,4.98l-8.06,-6.67c1.81,-1.65 3.52,-3.31 5.27,-4.97z" fill="white" id="svg_235"/>
   </mask>
   <g id="svg_236" mask="url(#mask6_19746_252052)">
    <path d="m189.45,273.45l8.06,6.66l-0.32,0.3l-8.05,-6.66l0.31,-0.3z" fill="#999999" id="svg_237"/>
    <path d="m189.14,273.75l8.05,6.67c-1.65,1.57 -3.3,3.13 -4.95,4.67l-8.06,-6.66c1.67,-1.56 3.31,-3.11 4.96,-4.67" fill="#949494" id="svg_238"/>
   </g>
   <mask height="8" id="mask7_19746_252052" maskUnits="userSpaceOnUse" width="9" x="183" y="255">
    <path d="m183.47,255.21l8.06,6.67c0.02,0.03 0.03,0.07 0.03,0.11c0,0.04 -0.01,0.08 -0.03,0.12l-8.06,-6.66c0.02,-0.04 0.03,-0.08 0.03,-0.12c0,-0.04 -0.01,-0.08 -0.03,-0.12z" fill="white" id="svg_239"/>
   </mask>
   <g id="svg_240" mask="url(#mask7_19746_252052)">
    <path d="m189.47,273.21l8.05,6.67l-8.05,-6.67" fill="#B8B8B8" id="svg_241"/>
    <path d="m189.47,273.22l8.05,6.67c0.01,0.01 0.01,0.03 0,0.04l-8.05,-6.66c0,0 0,-0.03 0,-0.05" fill="#BDBDBD" id="svg_242"/>
    <path d="m189.48,273.27l8.06,6.66l-8.05,-6.66" fill="#C2C2C2" id="svg_243"/>
    <path d="m189.49,273.29l8.05,6.66c0,0.03 0,0.06 0,0.09l-8.06,-6.66c0,-0.03 0,-0.05 0,-0.08" fill="#BDBDBD" id="svg_244"/>
    <path d="m189.47,273.38l8.06,6.67l-8.06,-6.67" fill="#B8B8B8" id="svg_245"/>
    <path d="m189.47,273.38l8.05,6.66l-8.05,-6.67" fill="#B3B3B3" id="svg_246"/>
    <path d="m189.47,273.41l8.05,6.67l-8.05,-6.66" fill="#ADADAD" id="svg_247"/>
    <path d="m189.46,273.42l8.06,6.67l-8.05,-6.67" fill="#A8A8A8" id="svg_248"/>
    <path d="m189.46,273.44l8.05,6.66l0,0.01l-8.06,-6.67l0.01,0z" fill="#A3A3A3" id="svg_249"/>
    <path d="m189.45,273.44l8.06,6.67l-8.06,-6.67l0,0z" fill="#9E9E9E" id="svg_250"/>
    <path d="m189.45,273.44l8.06,6.67l-0.01,0l-8.06,-6.66l0.01,-0.01z" fill="#999999" id="svg_251"/>
    <path d="m189.44,273.45l8.06,6.66l0,0l-8.06,-6.66z" fill="#949494" id="svg_252"/>
   </g>
   <mask height="8" id="mask8_19746_252052" maskUnits="userSpaceOnUse" width="9" x="182" y="265">
    <path d="m182.2,265.82l8.06,6.67c-0.03,0.06 -0.05,0.11 -0.06,0.17c-0.01,0.06 0,0.12 0.02,0.18l-8.05,-6.66c-0.06,-0.06 -0.02,-0.29 0.03,-0.36z" fill="white" id="svg_253"/>
   </mask>
   <g id="svg_254" mask="url(#mask8_19746_252052)">
    <path d="m188.21,283.83l8.05,6.66l-8.05,-6.66l0,0z" fill="#4D2E99" id="svg_255"/>
    <path d="m188.21,283.83l8.05,6.66l0,0.01l-8.05,-6.66l0,-0.01z" fill="#502F9E" id="svg_256"/>
    <path d="m188.19,283.84l8.06,6.67l-8.06,-6.67" fill="#5532A8" id="svg_257"/>
    <path d="m188.19,283.85l8.05,6.67l-8.05,-6.66" fill="#5834AD" id="svg_258"/>
    <path d="m188.18,283.87l8.03,6.66l-8.05,-6.66" fill="#5A35B3" id="svg_259"/>
    <path d="m188.18,283.89l8.03,6.67l0,0.05l-8.05,-6.66l0,-0.06" fill="#5D37B8" id="svg_260"/>
    <path d="m188.15,283.95l8.06,6.66c-0.01,0.04 -0.01,0.09 0,0.13l-8.06,-6.66c0,-0.04 0,-0.09 0,-0.13z" fill="#5F38BD" id="svg_261"/>
    <path d="m188.14,284.08l8.06,6.66l-8.05,-6.66" fill="#623AC2" id="svg_262"/>
    <path d="m188.15,284.09l8.06,6.67c0,0.02 0,0.04 0,0.05l-8.05,-6.66c0,0 0,-0.04 0,-0.06" fill="#5F38BD" id="svg_263"/>
    <path d="m188.16,284.16l8.05,6.67l0.01,0l-8.06,-6.66l0,-0.01z" fill="#5A35B3" id="svg_264"/>
    <path d="m188.16,284.17l8.06,6.66l0.01,0.01l-8.06,-6.66l-0.01,-0.01z" fill="#5834AD" id="svg_265"/>
    <path d="m188.17,284.18l8.06,6.66l-8.06,-6.66z" fill="#5532A8" id="svg_266"/>
   </g>
   <mask height="50" id="mask9_19746_252052" maskUnits="userSpaceOnUse" width="52" x="181" y="212">
    <path d="m224.94,216.33l8.06,6.67c-4.14,-2.43 -8.86,-3.69 -13.66,-3.62c-0.4,0 -0.8,0.01 -1.19,0.04c-12,0.64 -23.29,9.47 -27.36,21.43c-2.56,7.42 -2.25,14.43 0.74,21.03l-8.06,-6.67c-2.98,-6.59 -3.26,-13.61 -0.74,-21.02c4.07,-11.97 15.35,-20.8 27.36,-21.44l1.19,-0.03c4.8,-0.07 9.52,1.18 13.66,3.61z" fill="white" id="svg_267"/>
   </mask>
   <g id="svg_268" mask="url(#mask9_19746_252052)">
    <path d="m222.95,265.33l8.05,6.67c-4.14,-2.43 -8.86,-3.69 -13.66,-3.62c-0.4,0 -0.79,0.01 -1.19,0.04c-3.94,0.23 -7.8,1.28 -11.32,3.08l-8.05,-6.67c3.52,-1.8 7.37,-2.84 11.31,-3.08l1.19,-0.03c4.8,-0.07 9.53,1.18 13.67,3.61z" fill="#858585" id="svg_269"/>
    <path d="m196.78,264.83l8.06,6.67c-1.11,0.55 -2.17,1.18 -3.2,1.86l-8.05,-6.66c1.03,-0.69 2.1,-1.31 3.2,-1.87" fill="#8A8A8A" id="svg_270"/>
    <path d="m193.56,266.7l8.07,6.66c-0.84,0.56 -1.66,1.16 -2.46,1.79l-8.04,-6.66c0.79,-0.64 1.61,-1.24 2.45,-1.79" fill="#8F8F8F" id="svg_271"/>
    <path d="m191.11,268.49l8.05,6.66c-0.71,0.57 -1.39,1.17 -2.04,1.79l-8.05,-6.66c0.64,-0.65 1.33,-1.23 2.04,-1.79z" fill="#949494" id="svg_272"/>
    <path d="m189.07,270.28l8.05,6.66c-0.64,0.58 -1.2,1.19 -1.77,1.82l-8.06,-6.67c0.57,-0.64 1.17,-1.23 1.78,-1.81z" fill="#999999" id="svg_273"/>
    <path d="m187.29,272.09l8.05,6.67c-0.54,0.6 -1.06,1.23 -1.56,1.87l-8.06,-6.66c0.5,-0.64 1.03,-1.28 1.57,-1.88z" fill="#9E9E9E" id="svg_274"/>
    <path d="m185.72,273.97l8.06,6.66c-0.5,0.64 -0.97,1.28 -1.42,1.97l-8.05,-6.66c0.45,-0.68 0.92,-1.34 1.41,-1.97z" fill="#A3A3A3" id="svg_275"/>
    <path d="m184.31,275.94l8.05,6.68c-0.45,0.68 -0.88,1.38 -1.28,2.1l-8.05,-6.66c0.4,-0.72 0.83,-1.42 1.28,-2.11" fill="#A8A8A8" id="svg_276"/>
    <path d="m183.02,278.04l8.06,6.67c-0.43,0.76 -0.82,1.54 -1.18,2.33l-8.05,-6.66c0.36,-0.8 0.75,-1.57 1.17,-2.34z" fill="#ADADAD" id="svg_277"/>
    <path d="m181.85,280.38l8.05,6.66c-0.39,0.88 -0.75,1.77 -1.06,2.68l-8.06,-6.66c0.31,-0.92 0.64,-1.81 1.07,-2.68z" fill="#B3B3B3" id="svg_278"/>
    <path d="m180.78,283.06l8.06,6.66c-0.01,0.04 -0.03,0.09 -0.04,0.13c-0.42,1.22 -0.77,2.46 -1.04,3.71l-8.05,-6.66c0.28,-1.26 0.62,-2.5 1.03,-3.71c0.02,-0.05 0.04,-0.09 0.05,-0.13" fill="#B8B8B8" id="svg_279"/>
    <path d="m179.7,286.9l8.06,6.66c-0.51,2.33 -0.73,4.71 -0.64,7.09l-8.05,-6.67c-0.09,-2.38 0.13,-4.76 0.64,-7.08" fill="#BDBDBD" id="svg_280"/>
    <path d="m179.04,293.98l8.05,6.67c0,0.59 0.07,1.18 0.12,1.77l-8.05,-6.66c-0.06,-0.59 -0.1,-1.18 -0.12,-1.78z" fill="#C2C2C2" id="svg_281"/>
    <path d="m179.17,295.76l8.05,6.66c0.25,2.46 0.84,4.86 1.76,7.16l-8.05,-6.67c-0.92,-2.29 -1.51,-4.7 -1.76,-7.15z" fill="#BDBDBD" id="svg_282"/>
    <path d="m180.92,302.91l8.05,6.67c0.17,0.43 0.36,0.87 0.56,1.28l-8.06,-6.67c-0.2,-0.43 -0.38,-0.86 -0.55,-1.28z" fill="#B8B8B8" id="svg_283"/>
   </g>
   <mask height="10" id="mask10_19746_252052" maskUnits="userSpaceOnUse" width="12" x="224" y="214">
    <path d="m227.06,214.37l8.05,6.66c-0.7,0.64 -1.39,1.33 -2.1,1.97l-8.06,-6.67c0.71,-0.64 1.4,-1.28 2.11,-1.96z" fill="white" id="svg_284"/>
   </mask>
   <g id="svg_285" mask="url(#mask10_19746_252052)">
    <path d="m233.06,232.37l8.05,6.66c-0.7,0.64 -1.39,1.33 -2.1,1.97l-8.06,-6.67c0.71,-0.64 1.4,-1.28 2.11,-1.96z" fill="#949494" id="svg_286"/>
   </g>
   <mask height="13" id="mask11_19746_252052" maskUnits="userSpaceOnUse" width="27" x="212" y="205">
    <path d="m223.69,212.54c-0.92,-0.08 -1.85,-0.12 -2.78,-0.18l-8.05,-6.67c0.92,0.06 1.86,0.1 2.78,0.19c0.15,0.14 0.3,0.27 0.46,0.38l0.97,0.81l1.54,1.28l1.58,1.28l3.51,2.9l-1.92,-1.6l-1.04,-0.86l-1.05,-0.87l-1.06,-0.88l-1.03,-0.85l-1,-0.83l-0.94,-0.78c5.23,0.49 10.24,2.35 14.51,5.4l8.05,6.66c-4.28,-3.05 -9.3,-4.9 -14.53,-5.38z" fill="white" id="svg_287"/>
   </mask>
   <mask height="8" id="mask12_19746_252052" maskUnits="userSpaceOnUse" width="9" x="230" y="211">
    <path d="m238.3,218.01l-0.1,-0.07l-4.03,-3.33l-4.02,-3.33l0.1,0.07l8.05,6.66z" fill="white" id="svg_292"/>
   </mask>
   <mask height="7" id="mask13_19746_252052" maskUnits="userSpaceOnUse" width="9" x="185" y="269">
    <path d="m193.29,275.75l0.05,0.05l-8.05,-6.67l-0.05,-0.04l8.05,6.66z" fill="white" id="svg_295"/>
   </mask>
   <g id="svg_296" mask="url(#mask13_19746_252052)">
    <path d="m190.01,286.02l8.05,6.67c0.41,0.38 0.84,0.75 1.28,1.11l-8.06,-6.67c-0.43,-0.35 -0.85,-0.73 -1.28,-1.11" fill="#5331A3" id="svg_297"/>
   </g>
   <mask height="32" id="mask14_19746_252052" maskUnits="userSpaceOnUse" width="35" x="182" y="241">
    <path d="m208.45,241.1l8.06,6.66c-8.76,8.23 -17.51,16.48 -26.25,24.74l-8.05,-6.67c8.74,-8.25 17.49,-16.49 26.24,-24.73z" fill="white" id="svg_298"/>
   </mask>
   <g id="svg_299" mask="url(#mask14_19746_252052)">
    <path d="m214.45,259.1l8.06,6.66c-8.76,8.23 -17.51,16.48 -26.25,24.74l-8.05,-6.67c8.74,-8.26 17.48,-16.5 26.21,-24.73" fill="#4B2C94" id="svg_300"/>
   </g>
   <mask height="8" id="mask15_19746_252052" maskUnits="userSpaceOnUse" width="10" x="208" y="240">
    <path d="m209.17,240.8l8.06,6.66c-0.27,0.02 -0.52,0.13 -0.72,0.3l-8.05,-6.66c0.2,-0.18 0.45,-0.29 0.71,-0.3z" fill="white" id="svg_301"/>
   </mask>
   <g id="svg_302" mask="url(#mask15_19746_252052)">
    <path d="m215.17,258.8l8.06,6.66c-0.16,0.01 -0.31,0.05 -0.45,0.12l-8.06,-6.66c0.14,-0.07 0.29,-0.11 0.45,-0.12z" fill="#432885" id="svg_303"/>
    <path d="m214.72,258.92l8.05,6.66l-0.12,0.08l-8.06,-6.67l0.13,-0.07z" fill="#46298A" id="svg_304"/>
    <path d="m214.6,258.99l8.05,6.67l-0.09,0.06l-8.05,-6.66l0.09,-0.07z" fill="#482B8F" id="svg_305"/>
    <path d="m214.51,259.06l8.05,6.66l-0.05,0.04l-8.05,-6.66l0.05,-0.04z" fill="#4B2C94" id="svg_306"/>
   </g>
   <mask height="6" id="mask16_19746_252052" maskUnits="userSpaceOnUse" width="7" x="229" y="222">
    <path d="m229.81,222.65l6.12,5.06l-6.12,-5.06l0,0z" fill="white" id="svg_307"/>
   </mask>
   <g id="svg_308" mask="url(#mask16_19746_252052)">
    <path d="m235.84,240.61l8.06,6.67l0,0.03c-0.12,0.13 -0.22,0.25 -0.32,0.39l-8.06,-6.66c0.11,-0.14 0.21,-0.27 0.32,-0.39l0,-0.04z" fill="#502F9E" id="svg_309"/>
   </g>
   <mask height="8" id="mask17_19746_252052" maskUnits="userSpaceOnUse" width="10" x="233" y="220">
    <path d="m242.82,226.96c-0.4,0.01 -0.8,0.05 -1.2,0.13l-8.05,-6.66l8.01,6.64l-0.93,-0.78l-1,-0.82l-1.03,-0.85l-1.05,-0.87l-1.04,-0.87l-1.04,-0.86l-0.99,-0.82l-0.93,-0.77c0.39,-0.08 0.79,-0.13 1.19,-0.14l8.04,6.66l-0.94,-0.78l-1,-0.82l-1.03,-0.86l-1.05,-0.87l-1.06,-0.87l-1.03,-0.85l-1,-0.82l-0.93,-0.79l8.05,6.67l0.01,0z" fill="white" id="svg_310"/>
   </mask>
   <g id="svg_311" mask="url(#mask17_19746_252052)">
    <path d="m244.32,239.52l8.06,6.67c-0.23,-0.19 -0.48,-0.37 -0.74,-0.51c-0.86,-0.49 -1.83,-0.74 -2.82,-0.72c-0.4,0.01 -0.8,0.05 -1.2,0.13l-8.05,-6.66c0.39,-0.08 0.79,-0.13 1.19,-0.14c0.99,-0.01 1.97,0.24 2.83,0.72c0.26,0.15 0.5,0.32 0.73,0.51z" fill="#432885" id="svg_312"/>
   </g>
   <mask height="16" id="mask18_19746_252052" maskUnits="userSpaceOnUse" width="15" x="227" y="220">
    <path d="m236.06,233.33c-0.08,0.81 -0.01,1.63 0.23,2.41l-0.95,-0.78l-1,-0.83l-1.03,-0.85l-1.06,-0.87l-1.04,-0.87l-1.04,-0.86l-1,-0.82l-0.94,-0.78c-0.23,-0.78 -0.31,-1.6 -0.22,-2.42l8.05,6.67l-1.91,-1.61l-6.12,-5.06c0.17,-1.49 0.8,-2.89 1.8,-4.01l8.06,6.66l-8.06,-6.66c0.99,-1.12 2.31,-1.9 3.77,-2.22l8.05,6.66c-1.46,0.32 -2.78,1.1 -3.76,2.22c-1.02,1.12 -1.65,2.52 -1.83,4.02z" fill="white" id="svg_313"/>
   </mask>
   <g id="svg_314" mask="url(#mask18_19746_252052)">
    <path d="m239.57,238.43l8.06,6.66c-0.57,0.13 -1.12,0.32 -1.64,0.58l-8.05,-6.66c0.52,-0.27 1.07,-0.46 1.63,-0.58z" fill="#432885" id="svg_315"/>
    <path d="m237.94,239.01l8.06,6.66c-0.25,0.12 -0.49,0.26 -0.72,0.42l-8.05,-6.63c0.23,-0.16 0.46,-0.3 0.71,-0.42" fill="#46298A" id="svg_316"/>
    <path d="m237.22,239.46l8.05,6.66c-0.18,0.12 -0.36,0.25 -0.54,0.39l-8.05,-6.66c0.17,-0.14 0.35,-0.27 0.54,-0.39z" fill="#482B8F" id="svg_317"/>
    <path d="m236.68,239.82l8.05,6.68c-0.15,0.12 -0.3,0.25 -0.44,0.39l-8.06,-6.66c0.14,-0.14 0.3,-0.27 0.45,-0.4" fill="#4B2C94" id="svg_318"/>
    <path d="m236.23,240.22l8.05,6.66c-0.13,0.13 -0.27,0.26 -0.39,0.4l-8.05,-6.67c0.13,-0.14 0.26,-0.27 0.39,-0.39" fill="#4D2E99" id="svg_319"/>
    <path d="m235.85,240.61l8.05,6.67l0,0.03c-0.11,0.13 -0.22,0.25 -0.32,0.39l-8.05,-6.66c0.1,-0.14 0.21,-0.27 0.32,-0.39l0,-0.04z" fill="#502F9E" id="svg_320"/>
    <path d="m235.49,241.04l8.05,6.66c-0.11,0.15 -0.22,0.29 -0.32,0.45l-8.06,-6.67c0.1,-0.15 0.21,-0.3 0.33,-0.44z" fill="#5331A3" id="svg_321"/>
    <path d="m235.16,241.48l8.06,6.67c-0.1,0.16 -0.21,0.32 -0.3,0.48l-8.05,-6.66c0.09,-0.17 0.19,-0.33 0.29,-0.49z" fill="#5532A8" id="svg_322"/>
    <path d="m234.87,241.97l8.05,6.66c-0.1,0.18 -0.19,0.36 -0.27,0.54l-8.05,-6.66c0.08,-0.18 0.17,-0.36 0.27,-0.54z" fill="#5834AD" id="svg_323"/>
    <path d="m234.6,242.51l8.05,6.66c-0.09,0.21 -0.17,0.42 -0.25,0.64l-8.05,-6.66c0.07,-0.22 0.15,-0.43 0.25,-0.64z" fill="#5A35B3" id="svg_324"/>
    <path d="m234.35,243.13l8.05,6.67c-0.09,0.26 -0.16,0.52 -0.23,0.79l-8.04,-6.65c0.05,-0.27 0.13,-0.54 0.22,-0.8" fill="#5D37B8" id="svg_325"/>
    <path d="m234.13,243.94l8.05,6.66c-0.06,0.24 -0.09,0.49 -0.12,0.74c-0.02,0.29 -0.02,0.59 0,0.88l-8.05,-6.66c-0.02,-0.3 -0.02,-0.59 0,-0.89c0.03,-0.25 0.07,-0.49 0.12,-0.73" fill="#5F38BD" id="svg_326"/>
    <path d="m233.98,245.56l8.05,6.66c0,0.15 0,0.29 0,0.44l-8.06,-6.66c0,-0.15 0,-0.3 0,-0.44" fill="#623AC2" id="svg_327"/>
    <path d="m234,246l8.06,6.66c0.04,0.37 0.11,0.73 0.22,1.08c0.05,0.16 0.1,0.31 0.16,0.46l-8.05,-6.67c-0.07,-0.15 -0.12,-0.3 -0.16,-0.45c-0.11,-0.36 -0.18,-0.72 -0.23,-1.08z" fill="#5F38BD" id="svg_328"/>
   </g>
   <mask height="7" id="mask19_19746_252052" maskUnits="userSpaceOnUse" width="9" x="228" y="229">
    <path d="m236.29,235.74l-0.95,-0.77l-0.99,-0.83l-1.04,-0.86l-1.05,-0.87l-1.05,-0.88l-1.04,-0.85l-1,-0.82l-0.94,-0.78l4.03,3.33l2.09,1.72l1.47,1.23c0.17,0.11 0.33,0.23 0.47,0.38z" fill="white" id="svg_329"/>
   </mask>
   <g id="svg_330" mask="url(#mask19_19746_252052)">
    <path d="m234.02,246l8.05,6.66c0.04,0.37 0.11,0.73 0.22,1.08c0.05,0.16 0.1,0.31 0.16,0.46l-8.05,-6.67c-0.06,-0.15 -0.12,-0.3 -0.16,-0.45c-0.11,-0.36 -0.18,-0.72 -0.22,-1.08z" fill="#5F38BD" id="svg_331"/>
   </g>
   <mask height="9" id="mask20_19746_252052" maskUnits="userSpaceOnUse" width="13" x="234" y="220">
    <path d="m245.65,227.68c-0.86,-0.49 -1.83,-0.74 -2.81,-0.72l-8.06,-6.66c0.99,-0.02 1.97,0.23 2.82,0.71c0.27,0.15 0.51,0.32 0.74,0.52l8.06,6.66c-0.24,-0.19 -0.48,-0.37 -0.75,-0.51z" fill="white" id="svg_332"/>
   </mask>
   <g id="svg_333" mask="url(#mask20_19746_252052)">
    <path d="m244.34,239.52l8.05,6.67c-0.23,-0.19 -0.48,-0.37 -0.74,-0.51c-0.86,-0.49 -1.83,-0.74 -2.82,-0.72c-0.4,0.01 -0.8,0.05 -1.2,0.13l-8.05,-6.66c0.39,-0.08 0.79,-0.13 1.19,-0.13c0.99,-0.02 1.97,0.23 2.83,0.71c0.26,0.15 0.5,0.32 0.74,0.51z" fill="#432885" id="svg_334"/>
   </g>
   <mask height="10" id="mask21_19746_252052" maskUnits="userSpaceOnUse" width="10" x="228" y="229">
    <path d="m237.41,237.78c0.18,0.21 0.38,0.4 0.59,0.57l-8.05,-6.65c-0.21,-0.17 -0.41,-0.36 -0.59,-0.57c-0.52,-0.59 -0.9,-1.29 -1.13,-2.04l8.06,6.66c0.22,0.75 0.61,1.45 1.12,2.03z" fill="white" id="svg_335"/>
   </mask>
   <g id="svg_336" mask="url(#mask21_19746_252052)">
    <path d="m234.02,246l8.05,6.66c0.04,0.37 0.11,0.73 0.22,1.08c0.05,0.16 0.1,0.31 0.16,0.46l-8.05,-6.67c-0.06,-0.15 -0.12,-0.3 -0.16,-0.45c-0.11,-0.36 -0.18,-0.72 -0.22,-1.08z" fill="#5F38BD" id="svg_337"/>
    <path d="m234.4,247.53l8.05,6.65c0.1,0.23 0.21,0.46 0.33,0.68l-8.05,-6.66c-0.13,-0.22 -0.24,-0.45 -0.33,-0.69" fill="#5D37B8" id="svg_338"/>
    <path d="m234.73,248.22l8.05,6.66c0.09,0.18 0.2,0.35 0.32,0.51l-8.05,-6.67c-0.12,-0.16 -0.23,-0.33 -0.32,-0.5z" fill="#5A35B3" id="svg_339"/>
    <path d="m235.05,248.72l8.05,6.67c0.1,0.14 0.21,0.27 0.32,0.39l-8.05,-6.66c-0.12,-0.13 -0.22,-0.26 -0.32,-0.4z" fill="#5834AD" id="svg_340"/>
    <path d="m235.38,249.13l8.05,6.66c0.12,0.13 0.24,0.26 0.36,0.38l-8.04,-6.67c-0.13,-0.12 -0.26,-0.24 -0.37,-0.37z" fill="#5532A8" id="svg_341"/>
    <path d="m235.74,249.5l8.05,6.67l0.21,0.18l-8.05,-6.65c-0.07,-0.06 -0.15,-0.12 -0.21,-0.18" fill="#5331A3" id="svg_342"/>
   </g>
   <mask height="19" id="mask22_19746_252052" maskUnits="userSpaceOnUse" width="20" x="229" y="221">
    <path d="m238.33,221.52l8.05,6.67c0.82,0.68 1.41,1.58 1.72,2.6c0.4,1.4 0.32,2.89 -0.23,4.24c-0.56,1.41 -1.53,2.61 -2.8,3.44c-1.04,0.69 -2.26,1.08 -3.51,1.1c-0.2,0 -0.4,0 -0.6,0c-1.09,-0.09 -2.12,-0.51 -2.97,-1.2l-8.05,-6.67c0.84,0.69 1.87,1.11 2.96,1.2c0.21,0 0.4,0 0.6,0c1.25,-0.03 2.47,-0.41 3.51,-1.11c1.27,-0.83 2.25,-2.03 2.81,-3.44c0.55,-1.35 0.62,-2.84 0.22,-4.24c-0.3,-1.01 -0.9,-1.92 -1.71,-2.59z" fill="white" id="svg_343"/>
   </mask>
   <g id="svg_344" mask="url(#mask22_19746_252052)">
    <path d="m244.33,239.52l8.05,6.67l0.21,0.18l-8.05,-6.66l-0.21,-0.19z" fill="#A3A3A3" id="svg_345"/>
    <path d="m244.53,239.71l8.06,6.66c0.12,0.12 0.24,0.24 0.35,0.36l-8.05,-6.64c-0.11,-0.12 -0.23,-0.24 -0.36,-0.35" fill="#A8A8A8" id="svg_346"/>
    <path d="m244.9,240.09l8.05,6.67c0.12,0.13 0.24,0.27 0.34,0.42l-8.05,-6.66c-0.11,-0.15 -0.22,-0.29 -0.34,-0.43z" fill="#ADADAD" id="svg_347"/>
    <path d="m245.24,240.49l8.05,6.64c0.12,0.17 0.23,0.34 0.33,0.52l-8.06,-6.67c-0.09,-0.17 -0.2,-0.35 -0.32,-0.51" fill="#B3B3B3" id="svg_348"/>
    <path d="m245.56,241l8.06,6.67c0.12,0.22 0.23,0.45 0.32,0.68l-8.05,-6.66c-0.09,-0.24 -0.2,-0.47 -0.33,-0.69z" fill="#B8B8B8" id="svg_349"/>
    <path d="m245.89,241.69l8.06,6.66c0.05,0.14 0.11,0.29 0.15,0.44c0.11,0.36 0.18,0.73 0.22,1.11l-8.05,-6.66c-0.04,-0.38 -0.12,-0.75 -0.23,-1.12c-0.04,-0.14 -0.09,-0.29 -0.15,-0.43z" fill="#BDBDBD" id="svg_350"/>
    <path d="m246.26,243.24l8.05,6.66c0,0.13 0,0.28 0,0.41l-8.05,-6.66c0,-0.14 0,-0.28 0,-0.41" fill="#C2C2C2" id="svg_351"/>
    <path d="m246.29,243.65l8.06,6.66c0.02,0.55 -0.04,1.1 -0.15,1.65l-8.05,-6.67c0.12,-0.54 0.16,-1.09 0.14,-1.64z" fill="#BDBDBD" id="svg_352"/>
    <path d="m246.14,245.29l8.06,6.67c-0.06,0.26 -0.14,0.52 -0.23,0.78l-8.04,-6.67c0.08,-0.25 0.16,-0.51 0.21,-0.78z" fill="#B8B8B8" id="svg_353"/>
    <path d="m245.93,246.07l8.05,6.67c0,0.09 -0.07,0.2 -0.11,0.29c-0.04,0.1 -0.09,0.22 -0.13,0.33l-8.06,-6.67c0.05,-0.1 0.1,-0.21 0.14,-0.32c0.05,-0.11 0.08,-0.2 0.11,-0.3z" fill="#B3B3B3" id="svg_354"/>
    <path d="m245.68,246.69l8.05,6.67c-0.08,0.18 -0.17,0.36 -0.27,0.53l-8.03,-6.66c0.1,-0.18 0.19,-0.36 0.27,-0.54" fill="#ADADAD" id="svg_355"/>
    <path d="m245.44,247.23l8.04,6.66c-0.08,0.17 -0.18,0.33 -0.29,0.49l-8.05,-6.66c0.1,-0.16 0.2,-0.32 0.3,-0.49z" fill="#A8A8A8" id="svg_356"/>
    <path d="m245.11,247.72l8.05,6.66c-0.1,0.15 -0.2,0.3 -0.32,0.45l-8.05,-6.66c0.12,-0.15 0.23,-0.3 0.33,-0.45" fill="#A3A3A3" id="svg_357"/>
    <path d="m244.8,248.17l8.05,6.66c-0.11,0.15 -0.23,0.29 -0.35,0.42l-8.06,-6.66c0.13,-0.14 0.25,-0.28 0.36,-0.42z" fill="#9E9E9E" id="svg_358"/>
    <path d="m244.44,248.59l8.03,6.66c-0.12,0.14 -0.26,0.28 -0.39,0.41l-8.06,-6.67c0.14,-0.13 0.27,-0.26 0.4,-0.4" fill="#999999" id="svg_359"/>
    <path d="m244.05,248.99l8.05,6.67c-0.14,0.14 -0.3,0.27 -0.45,0.39l-8.06,-6.66c0.16,-0.13 0.31,-0.26 0.46,-0.4z" fill="#949494" id="svg_360"/>
    <path d="m243.59,249.39l8.06,6.66c-0.18,0.14 -0.36,0.28 -0.55,0.4l-8.04,-6.67c0.18,-0.12 0.36,-0.25 0.53,-0.39z" fill="#8F8F8F" id="svg_361"/>
    <path d="m243.05,249.78l8.05,6.67c-0.22,0.15 -0.46,0.29 -0.7,0.4l-8.05,-6.66c0.24,-0.12 0.47,-0.26 0.69,-0.41l0.04,0" fill="#8A8A8A" id="svg_362"/>
    <path d="m242.32,250.21l8.05,6.66c-0.87,0.45 -1.83,0.69 -2.81,0.7c-0.2,0 -0.4,0 -0.6,0c-1.09,-0.09 -2.12,-0.51 -2.97,-1.2l-8.05,-6.68c0.84,0.7 1.87,1.12 2.96,1.21c0.21,0 0.4,0 0.6,0c0.98,-0.02 1.95,-0.26 2.82,-0.71" fill="#858585" id="svg_363"/>
   </g>
   <mask height="8" id="mask23_19746_252052" maskUnits="userSpaceOnUse" width="42" x="209" y="240">
    <path d="m242.58,240.4l8.05,6.66l-8.95,0.1l-24.46,0.3l-8.06,-6.67l24.47,-0.29l8.95,-0.1z" fill="white" id="svg_365"/>
   </mask>
   <g id="svg_366" mask="url(#mask23_19746_252052)">
    <path d="m248.58,258.4l8.05,6.66l-8.95,0.1l-24.46,0.3l-8.06,-6.67l24.47,-0.29l8.95,-0.1" fill="#432885" id="svg_367"/>
   </g>
   <mask height="42" id="mask24_19746_252052" maskUnits="userSpaceOnUse" width="66" x="185" y="241">
    <path d="m193.35,275.8l-8.05,-6.67c5.16,4.27 11.35,6.53 18.58,6.71c0.43,0 0.85,0 1.28,0c7.22,-0.11 14.24,-2.44 20.12,-6.66c8.6,-5.83 14.6,-14.78 16.72,-24.96c0.22,-0.98 0.34,-1.97 0.5,-2.97l8.06,6.67c-0.17,0.99 -0.29,1.98 -0.51,2.96c-2.12,10.18 -8.12,19.14 -16.73,24.96c-5.85,4.23 -12.86,6.55 -20.08,6.67c-0.43,0 -0.85,0 -1.28,0c-7.25,-0.18 -13.43,-2.44 -18.61,-6.71z" fill="white" id="svg_369"/>
   </mask>
   <g id="svg_370" mask="url(#mask24_19746_252052)">
    <path d="m248.5,259.24l8.05,6.67c-0.16,0.97 -0.28,1.92 -0.49,2.92l-8.06,-6.67c0.21,-0.96 0.33,-1.91 0.5,-2.92z" fill="#BDBDBD" id="svg_371"/>
    <path d="m248,262.16l8.06,6.67l0,0.04c-0.37,1.67 -0.83,3.32 -1.39,4.93l-8.04,-6.67c0.55,-1.61 1.01,-3.26 1.38,-4.93l0,-0.04" fill="#B8B8B8" id="svg_372"/>
    <path d="m246.61,267.13l8.05,6.67c-0.42,1.23 -0.9,2.42 -1.42,3.57l-8.05,-6.66c0.53,-1.16 1.01,-2.35 1.42,-3.58z" fill="#B3B3B3" id="svg_373"/>
    <path d="m245.19,270.71l8.05,6.66c-0.45,0.99 -0.94,1.96 -1.46,2.92l-8.06,-6.67c0.53,-0.94 1.02,-1.92 1.47,-2.91z" fill="#ADADAD" id="svg_374"/>
    <path d="m243.73,273.62l8.05,6.67c-0.48,0.86 -1,1.71 -1.54,2.56l-8.06,-6.67c0.55,-0.83 1.06,-1.67 1.55,-2.56" fill="#A8A8A8" id="svg_375"/>
    <path d="m242.17,276.16l8.06,6.67c-0.53,0.8 -1.09,1.58 -1.68,2.33l-8.06,-6.66c0.6,-0.76 1.15,-1.54 1.68,-2.34z" fill="#A3A3A3" id="svg_376"/>
    <path d="m240.5,278.5l8.05,6.66c-0.59,0.77 -1.22,1.52 -1.88,2.25l-8.05,-6.66c0.65,-0.73 1.28,-1.48 1.88,-2.25z" fill="#9E9E9E" id="svg_377"/>
    <path d="m238.62,280.75l8.05,6.66c-0.69,0.77 -1.42,1.51 -2.18,2.23l-8.05,-6.66c0.76,-0.72 1.49,-1.46 2.18,-2.23z" fill="#999999" id="svg_378"/>
    <path d="m236.44,282.98l8.05,6.66c-0.85,0.81 -1.73,1.58 -2.64,2.31l-8.05,-6.66c0.92,-0.74 1.8,-1.52 2.64,-2.31z" fill="#949494" id="svg_379"/>
    <path d="m233.79,285.29l8.05,6.65c-0.8,0.66 -1.64,1.3 -2.52,1.92l-0.85,0.58l-8.04,-6.67l0.84,-0.57c0.85,-0.61 1.7,-1.25 2.56,-1.92" fill="#8F8F8F" id="svg_380"/>
    <path d="m230.42,287.76l8.05,6.67c-1.28,0.85 -2.62,1.62 -3.99,2.32l-8.05,-6.67c1.37,-0.69 2.71,-1.47 3.99,-2.32z" fill="#8A8A8A" id="svg_381"/>
    <path d="m226.43,290.08l8.06,6.67c-4.74,2.42 -9.97,3.7 -15.29,3.76c-0.42,0 -0.85,0 -1.28,0c-7.22,-0.17 -13.43,-2.44 -18.58,-6.7l-8.06,-6.67c5.16,4.26 11.36,6.53 18.58,6.71c0.43,0 0.86,0 1.28,0c5.32,-0.06 10.55,-1.35 15.28,-3.77" fill="#858585" id="svg_382"/>
   </g>
   <mask height="110" id="mask25_19746_252052" maskUnits="userSpaceOnUse" width="102" x="170" y="194">
    <path d="m245.77,194.99l8.05,6.67c12.27,10.14 19.18,26.42 17.35,44.87c-3.15,31.17 -30.27,56.73 -60.58,57.09c-12.37,0.14 -23.36,-3.94 -31.82,-10.94l-8.05,-6.67c8.45,7.01 19.44,11.09 31.81,10.94c30.32,-0.35 57.44,-25.91 60.58,-57.09c1.9,-18.45 -5.08,-34.72 -17.34,-44.87z" fill="white" id="svg_383"/>
   </mask>
   <path d="m233,346.61c-10.92,-6.91 -21.29,-9.82 -31.03,-15.54c-16.67,-9.79 -31.12,-15.66 -23.57,-27.62c6.9,-10.93 17.82,-2.88 29.32,0c11.49,2.88 20.11,2.3 20.11,2.3c0,0 49.64,-7.13 58.05,-3.45c8.42,3.68 25,27.2 25,27.2l-77.88,17.11z" fill="#FFCDC4" id="svg_406"/>
   <path d="m233,346.61c-6.62,-4.02 -14.58,-7.3 -21.74,-10.36c-7.39,-3.19 -14.25,-7.45 -21.3,-11.33c-8.19,-4.75 -19.25,-11.52 -12.02,-22.17c6.4,-10.18 17.69,-3.93 26.36,-1.08c7.58,2.41 15.5,3.56 23.45,3.39c14.2,-1.87 29.07,-3.54 43.6,-3.97c4.82,0 9.88,-0.39 14.5,1.21c-2.3,-0.81 -4.79,-0.8 -7.2,-0.87c-2.41,-0.08 -4.86,0.04 -7.28,0.17c-14.56,0.88 -29.05,2.79 -43.48,4.83c-2.73,0.12 -5.46,0.04 -8.18,-0.21c-5.39,-0.46 -10.72,-1.49 -15.89,-3.1c-2.56,-0.83 -5.11,-1.8 -7.59,-2.64c-6.4,-2.21 -12.93,-3.49 -17.05,3.1c-6.79,9.65 4.2,15.78 11.41,20.26c6.94,4 13.7,8.36 20.99,11.69c7.04,3.27 14.94,6.76 21.38,11.08l0.04,0z" fill="#D6A299" id="svg_407"/>
   <path d="m187.59,316.11c2.2,-3.31 5.4,-8.06 7.67,-11.24l0,0.64c-2.17,-2.3 -4.81,-4.1 -7.74,-5.28c-2.17,-0.77 -4.54,-0.72 -6.4,0.7c-1.7,1.36 -3.19,3.5 -3.19,5.71c0.24,4.67 5.75,7.65 9.63,9.47l0.03,0zm0,0c-4.39,-1.47 -10.23,-4.18 -10.7,-9.44c0.05,-1.77 0.64,-3.47 1.69,-4.89c1.05,-1.42 2.51,-2.48 4.19,-3.05c5.18,-1.28 9.91,2.56 13.25,6.1l0.28,0.32l-0.25,0.32c-2.75,3.6 -5.63,7.17 -8.46,10.64z" fill="#D6A299" id="svg_408"/>
  </g>
  <text fill="#000000" font-family="Cursive" font-size="24" id="svg_409" stroke-width="0" text-anchor="middle" transform="matrix(1.04495 0.132985 -0.130457 1.67292 46.396 -107.822)" x="177" xml:space="preserve" y="183">DonorSphere</text>
 </g>
</svg>